<mxfile host="app.diagrams.net" modified="2023-08-24T01:06:49.784Z" agent="Mozilla/5.0 (Macintosh; Intel Mac OS X 10_15_7) AppleWebKit/537.36 (KHTML, like Gecko) Chrome/116.0.0.0 Safari/537.36" version="21.6.8" etag="5y2S6dhRjcmgIJBDBLot" type="github">
  <diagram name="ページ1" id="I4snCjBmM5S8owsBWm1R">
    <mxGraphModel>
      <root>
        <mxCell id="0" />
        <mxCell id="1" parent="0" />
      </root>
    </mxGraphModel>
  </diagram>
</mxfile>
